<?xml version="1.0" encoding="UTF-8" standalone="no"?>
<!-- Created with Inkscape (http://www.inkscape.org/) -->

<svg
   xmlns:dc="http://purl.org/dc/elements/1.1/"
   xmlns:cc="http://creativecommons.org/ns#"
   xmlns:rdf="http://www.w3.org/1999/02/22-rdf-syntax-ns#"
   xmlns:svg="http://www.w3.org/2000/svg"
   xmlns="http://www.w3.org/2000/svg"
   version="1.1"
   width="239.92932"
   height="343.78284"
   id="svg3039">
  <metadata
     id="metadata3045">
    <rdf:RDF>
      <cc:Work
         rdf:about="">
        <dc:format>image/svg+xml</dc:format>
        <dc:type
           rdf:resource="http://purl.org/dc/dcmitype/StillImage" />
        <dc:title></dc:title>
      </cc:Work>
    </rdf:RDF>
  </metadata>
  <defs
     id="defs3043" />
  <path
     d="m 112.7178,342.7405 c 1.2672,-1.2672 1.7968,-38.0811 0.593,-41.2182 -0.3339,-0.87 -1.4589,-1.5818 -2.5,-1.5818 -1.6493,0 -1.893,-0.781 -1.893,-6.0658 0,-6.8419 -1.2143,-9.9342 -3.9009,-9.9342 -1.0067,0 -5.0159,-1.5937 -8.909395,-3.5415 -8.560295,-4.2825 -15.201295,-11.2247 -19.570895,-20.4585 -2.927,-6.1853 -3.0909,-7.202 -3.3858,-21 -0.4051,-18.9518 -0.3676,-18.8075 -4.987,-19.1899 l -3.746,-0.3101 -0.289,-8.75 -0.2889,-8.75 10.3389,0 c 6.7081,0 10.7604,-0.4214 11.539,-1.2 0.8721,-0.8722 1.2,-8.3446 1.2,-27.3508 0,-15.68141 0.4202,-27.35637 1.0498,-29.16216 0.9979,-2.86276 4.410095,-5.28706 7.441495,-5.28706 0.7684,0 2.6597,1.08568 4.2029,2.41262 l 2.805795,2.41262 0.2287,28.26523 c 0.1746,21.57165 0.5298,28.45635 1.5,29.07205 2.1222,1.3469 33.1876,1.0212 34.5713,-0.3625 0.8758,-0.8759 1.2,-8.7212 1.2,-29.04547 l 0,-27.84546 2.4545,-2.45454 c 1.35,-1.35 3.6205,-2.45455 5.0455,-2.45455 1.425,0 3.6954,1.10455 5.0454,2.45455 l 2.4546,2.45454 0,27.47403 c 0,23.6431 0.2191,27.6931 1.5714,29.0455 1.1949,1.1949 3.72,1.5714 10.5389,1.5714 l 8.9675,0 -0.2889,8.75 c -0.2879,8.7189 -0.2987,8.7511 -3.0365,9.0662 -3.4672,0.399 -3.5973,1.025 -3.9854,19.1838 -0.2972,13.9053 -0.4407,14.7778 -3.4971,21.2738 -4.158,8.8373 -11.9481,16.6462 -20.9334,20.9839 l -6.8365,3.3005 -0.291,7.6606 -0.291,7.6606 -3.209,0.3103 -3.209,0.3103 -0.2696,21.1355 c -0.2188,17.161 -0.012,21.2344 1.1008,21.6614 2.3401,0.8979 17.7318,-2.1588 27.1688,-5.3957 25.3566,-8.6973 46.638,-25.1897 61.5328,-47.6861 15.6523,-23.6406 22.8766,-53.5259 18.907,-78.2151 -1.7106,-10.6391 -7.5857,-26.62513 -15.0682,-41.00002 -7.1178,-13.67435 -23.7473,-39.12904 -50.7751,-77.721078 -26.0997,-37.26675 -40.8439,-63.00403 -48.1381,-84.0289365 -4.3478,-12.53219 -5.6706,-12.37341 -10.4133,1.2500005 C 107.3588,30.846882 89.88341,60.952712 63.23971,98.685362 33.78261,140.40232 24.65851,154.44214 15.35051,172.37542 1.3298097,199.3884 -2.4425903,218.5161 1.4334099,242.9405 c 7.965,50.1903 47.2306001,90.391 97.0814951,99.3934 10.063895,1.8174 12.716195,1.8933 14.202895,0.4066 z"
     id="path3379"
     style="fill:#ffffff;fill-opacity:1" />
  <rect
     width="102.86092"
     height="103.99126"
     x="413.70435"
     y="127.88794"
     id="rect3598"
     style="fill:#50abe3;fill-opacity:1;stroke:none" />
</svg>
